<?xml version="1.0" encoding="UTF-8"?>
<!DOCTYPE svg PUBLIC "-//W3C//DTD SVG 1.1//EN" "http://www.w3.org/Graphics/SVG/1.1/DTD/svg11.dtd">
<!-- Creator: CorelDRAW X7 -->
<svg xmlns="http://www.w3.org/2000/svg" xml:space="preserve" width="33.7614mm" height="15.4516mm" version="1.1" style="shape-rendering:geometricPrecision; text-rendering:geometricPrecision; image-rendering:optimizeQuality; fill-rule:evenodd; clip-rule:evenodd"
viewBox="0 0 1152 527"
 xmlns:xlink="http://www.w3.org/1999/xlink">
 <defs>
  <style type="text/css">
   <![CDATA[
    .fil0 {fill:none}
    .fil1 {fill:#046EB8}
   ]]>
  </style>
 </defs>
 <g id="图层_x0020_1">
  <metadata id="CorelCorpID_0Corel-Layer"/>
  <rect class="fil0" width="1152" height="527"/>
  <path class="fil1" d="M414 398c-71,-21 -109,-51 -259,-73 -73,-10 -107,3 -131,15 72,-111 195,-120 274,-119 183,3 262,83 478,38 121,-26 220,-68 336,-142 -234,242 -377,379 -698,281z"/>
  <path class="fil1" d="M378 67c-101,149 -241,118 -329,189 14,-69 63,-84 149,-101 92,-19 111,-25 180,-88z"/>
 </g>
</svg>
